<svg width="116" height="148" viewBox="0 0 116 148" fill="none" xmlns="http://www.w3.org/2000/svg">
<path d="M103.769 27.57C88.4181 26.7175 75.1096 20.8224 67.2547 11.3963L57.758 0L48.261 11.3963C40.4063 20.8226 27.0978 26.7175 11.7463 27.57L0.0698242 28.2184V82.1478C0.0698242 116.458 46.7146 141.829 52.032 144.609L57.758 147.603L63.4839 144.609C68.8011 141.829 115.446 116.458 115.446 82.1478V28.2184L103.769 27.57ZM57.758 19.3091C68.057 31.6714 84.5409 38.8832 103.084 39.9124C103.084 39.9124 103.084 71.8462 103.084 82.1478C103.084 109.96 57.758 133.654 57.758 133.654C57.758 133.654 12.4321 109.96 12.4321 82.1478C12.4321 71.8462 12.4321 39.9124 12.4321 39.9124C30.9744 38.8832 47.4587 31.6717 57.758 19.3091Z" fill="#A60000"/>
</svg>
