<svg width="936" height="148" viewBox="0 0 936 148" fill="none" xmlns="http://www.w3.org/2000/svg">
<path d="M193.584 86.8174C188.06 86.8174 182.851 85.7937 177.958 83.7463C173.066 81.6202 168.765 78.6672 165.056 74.8874C161.346 71.0288 158.427 66.5009 156.296 61.3037C154.244 56.0277 153.218 50.1612 153.218 43.704C153.218 37.8768 154.283 32.4433 156.414 27.4036C158.545 22.3638 161.504 17.9147 165.292 14.0562C169.08 10.1976 173.5 7.20525 178.55 5.07911C183.68 2.87423 189.204 1.77178 195.123 1.77178C202.857 1.77178 209.683 3.42545 215.602 6.73278C221.521 10.0401 225.9 14.4892 228.741 20.0802L214.3 30.9472C212.406 27.2461 209.644 24.3325 206.013 22.2064C202.462 20.0802 198.595 19.0171 194.413 19.0171C191.256 19.0171 188.336 19.6865 185.653 21.0252C183.049 22.2851 180.76 24.0963 178.787 26.4586C176.893 28.7423 175.433 31.4196 174.407 34.4907C173.381 37.5618 172.868 40.8691 172.868 44.4127C172.868 48.035 173.421 51.3817 174.526 54.4528C175.63 57.5239 177.169 60.2013 179.142 62.4849C181.115 64.6898 183.443 66.4222 186.126 67.6821C188.888 68.9421 191.927 69.572 195.241 69.572C199.266 69.572 203.093 68.5877 206.724 66.6191C210.433 64.5717 213.826 61.5793 216.904 57.642V76.7773C210.196 83.4707 202.423 86.8174 193.584 86.8174ZM215.72 56.4608H199.384V42.4047H231.819V86.2268H215.72V56.4608Z" fill="#22264D"/>
<path d="M242.523 63.9023V24.2144H261.463V59.7682C261.463 63.548 262.213 66.4616 263.712 68.509C265.212 70.4776 267.342 71.4619 270.104 71.4619C271.841 71.4619 273.498 71.1863 275.076 70.6351C276.655 70.0051 278.193 69.0208 279.693 67.6821C281.192 66.3435 282.534 64.611 283.718 62.4849V24.2144H302.658V65.2016C302.658 67.0915 302.934 68.4302 303.486 69.2177C304.118 69.9264 305.183 70.3595 306.682 70.517V86.2268C304.946 86.5418 303.407 86.778 302.066 86.9355C300.803 87.093 299.659 87.1718 298.633 87.1718C295.318 87.1718 292.675 86.5024 290.702 85.1637C288.729 83.7463 287.506 81.7777 287.032 79.2578L286.677 75.478C283.836 79.5728 280.285 82.6045 276.023 84.5731C271.841 86.463 267.145 87.408 261.937 87.408C255.623 87.408 250.809 85.4 247.495 81.3839C244.18 77.3679 242.523 71.5407 242.523 63.9023Z" fill="#22264D"/>
<path d="M313.424 67.6821C313.424 63.5873 314.569 60.0044 316.857 56.9333C319.146 53.8622 322.302 51.4605 326.327 49.7281C330.352 47.9169 334.969 47.0113 340.177 47.0113C342.702 47.0113 345.188 47.2476 347.635 47.72C350.081 48.1138 352.212 48.7044 354.027 49.4918V46.7751C354.027 43.389 353.001 40.7904 350.949 38.9792C348.897 37.1681 345.78 36.2625 341.598 36.2625C338.125 36.2625 334.85 36.8531 331.772 38.0343C328.774 39.2155 325.577 40.9085 322.184 43.1134L316.502 31.0653C320.606 28.3879 324.867 26.3799 329.287 25.0412C333.785 23.7025 338.52 23.0332 343.492 23.0332C352.804 23.0332 360.025 25.2774 365.154 29.766C370.363 34.1757 372.967 40.5935 372.967 49.0193V65.2016C372.967 67.0915 373.243 68.4302 373.796 69.2177C374.427 69.9264 375.492 70.3595 376.992 70.517V86.2268C375.413 86.5418 373.914 86.778 372.494 86.9355C371.152 87.093 369.968 87.1718 368.942 87.1718C365.391 87.1718 362.668 86.463 360.774 85.0456C358.959 83.6282 357.815 81.6989 357.341 79.2578L356.986 76.541C354.224 80.0846 350.91 82.8014 347.043 84.6913C343.255 86.5024 339.27 87.408 335.087 87.408C330.983 87.408 327.274 86.5418 323.96 84.8094C320.724 83.077 318.159 80.7146 316.265 77.7222C314.371 74.7299 313.424 71.3832 313.424 67.6821ZM351.068 70.0445C351.936 69.3358 352.646 68.5483 353.198 67.6821C353.751 66.8159 354.027 65.9891 354.027 65.2016V59.65C352.449 59.0201 350.673 58.5476 348.7 58.2326C346.806 57.8389 345.03 57.642 343.373 57.642C339.901 57.642 337.02 58.4295 334.732 60.0044C332.443 61.5006 331.299 63.5086 331.299 66.0285C331.299 67.4459 331.694 68.7452 332.483 69.9264C333.272 71.1076 334.337 72.0525 335.679 72.7612C337.099 73.47 338.757 73.8243 340.651 73.8243C342.545 73.8243 344.439 73.47 346.333 72.7612C348.227 72.0525 349.805 71.147 351.068 70.0445Z" fill="#22264D"/>
<path d="M426.11 40.3967C421.533 40.3967 417.39 41.1447 413.681 42.6409C409.972 44.0583 407.288 46.1845 405.631 49.0193V86.2268H386.691V24.2144H404.092V36.735C406.223 32.5614 408.985 29.2935 412.379 26.9311C415.772 24.5687 419.323 23.3482 423.032 23.2694C423.901 23.2694 424.532 23.2694 424.926 23.2694C425.4 23.2694 425.794 23.3088 426.11 23.3875V40.3967Z" fill="#22264D"/>
<path d="M430.189 55.1615C430.189 49.0981 431.373 43.6646 433.741 38.8611C436.108 33.9789 439.344 30.1203 443.448 27.2855C447.551 24.4506 452.286 23.0332 457.653 23.0332C461.993 23.0332 465.939 24.0963 469.49 26.2224C473.041 28.2698 475.725 30.9865 477.54 34.3726V0H496.48V65.2016C496.48 67.0915 496.795 68.4302 497.427 69.2177C498.058 69.9264 499.084 70.3595 500.504 70.517V86.2268C497.19 86.8568 494.507 87.1718 492.455 87.1718C489.219 87.1718 486.576 86.463 484.524 85.0456C482.551 83.6282 481.328 81.6595 480.854 79.1397L480.499 75.9505C478.289 79.809 475.29 82.6832 471.503 84.5731C467.715 86.463 463.729 87.408 459.547 87.408C455.285 87.408 451.339 86.6205 447.709 85.0456C444.158 83.3919 441.041 81.1083 438.357 78.1947C435.753 75.2811 433.741 71.8557 432.32 67.9184C430.9 63.9811 430.189 59.7288 430.189 55.1615ZM477.658 62.8393V49.8462C476.869 47.72 475.725 45.8695 474.225 44.2946C472.805 42.7197 471.147 41.4597 469.253 40.5148C467.438 39.5698 465.584 39.0974 463.69 39.0974C461.638 39.0974 459.744 39.5305 458.008 40.3967C456.35 41.2629 454.89 42.4834 453.628 44.0583C452.365 45.5545 451.379 47.2869 450.668 49.2556C450.037 51.2242 449.721 53.311 449.721 55.5159C449.721 57.7995 450.077 59.9257 450.787 61.8943C451.576 63.7842 452.641 65.4772 453.983 66.9734C455.325 68.3908 456.903 69.4933 458.718 70.2807C460.533 71.0682 462.506 71.4619 464.637 71.4619C465.978 71.4619 467.28 71.2651 468.543 70.8713C469.806 70.3989 470.99 69.8083 472.094 69.0996C473.278 68.3909 474.344 67.4853 475.291 66.3828C476.238 65.2804 477.027 64.0992 477.658 62.8393Z" fill="#22264D"/>
<path d="M511.193 86.2268V24.2144H530.133V86.2268H511.193ZM511.193 17.1272V0H530.133V17.1272H511.193Z" fill="#22264D"/>
<path d="M539.193 67.6821C539.193 63.5873 540.337 60.0044 542.626 56.9333C544.914 53.8622 548.071 51.4605 552.096 49.7281C556.12 47.9169 560.737 47.0113 565.946 47.0113C568.471 47.0113 570.957 47.2476 573.403 47.72C575.85 48.1138 577.981 48.7044 579.796 49.4918V46.7751C579.796 43.389 578.77 40.7904 576.718 38.9792C574.666 37.1681 571.549 36.2625 567.366 36.2625C563.894 36.2625 560.619 36.8531 557.541 38.0343C554.542 39.2155 551.346 40.9085 547.953 43.1134L542.271 31.0653C546.374 28.3879 550.636 26.3799 555.055 25.0412C559.553 23.7025 564.288 23.0332 569.26 23.0332C578.572 23.0332 585.793 25.2774 590.923 29.766C596.131 34.1757 598.736 40.5935 598.736 49.0193V65.2016C598.736 67.0915 599.012 68.4302 599.564 69.2177C600.196 69.9264 601.261 70.3595 602.76 70.517V86.2268C601.182 86.5418 599.683 86.778 598.262 86.9355C596.921 87.093 595.737 87.1718 594.711 87.1718C591.16 87.1718 588.437 86.463 586.543 85.0456C584.728 83.6282 583.584 81.6989 583.11 79.2578L582.755 76.541C579.993 80.0846 576.678 82.8014 572.811 84.6913C569.023 86.5024 565.038 87.408 560.856 87.408C556.752 87.408 553.043 86.5418 549.728 84.8094C546.493 83.077 543.928 80.7146 542.034 77.7222C540.14 74.7299 539.193 71.3832 539.193 67.6821ZM576.836 70.0445C577.704 69.3358 578.415 68.5483 578.967 67.6821C579.519 66.8159 579.796 65.9891 579.796 65.2016V59.65C578.217 59.0201 576.442 58.5476 574.469 58.2326C572.575 57.8389 570.799 57.642 569.142 57.642C565.669 57.642 562.789 58.4295 560.5 60.0044C558.212 61.5006 557.068 63.5086 557.068 66.0285C557.068 67.4459 557.462 68.7452 558.251 69.9264C559.04 71.1076 560.106 72.0525 561.447 72.7612C562.868 73.47 564.525 73.8243 566.419 73.8243C568.313 73.8243 570.207 73.47 572.101 72.7612C573.995 72.0525 575.574 71.147 576.836 70.0445Z" fill="#22264D"/>
<path d="M672.358 86.2268H653.418V51.3817C653.418 47.2869 652.628 44.334 651.05 42.5228C649.551 40.6329 647.538 39.688 645.013 39.688C643.277 39.688 641.501 40.1604 639.686 41.1054C637.871 42.0503 636.214 43.3496 634.714 45.0033C633.294 46.657 632.189 48.5469 631.4 50.673V86.2268H612.46V24.2144H629.506V34.6088C631.084 32.1677 633.057 30.0809 635.425 28.3485C637.792 26.6161 640.515 25.3168 643.592 24.4506C646.67 23.5057 650.024 23.0332 653.654 23.0332C657.679 23.0332 660.915 23.7813 663.361 25.2774C665.887 26.6949 667.781 28.5848 669.043 30.9472C670.385 33.3095 671.253 35.8688 671.647 38.6249C672.121 41.3022 672.358 43.9402 672.358 46.5388V86.2268Z" fill="#22264D"/>
<path d="M749.74 86.8174C744.216 86.8174 739.007 85.7937 734.115 83.7463C729.222 81.6202 724.921 78.6672 721.212 74.8874C717.502 71.0288 714.583 66.5009 712.452 61.3037C710.4 56.0277 709.374 50.1612 709.374 43.704C709.374 37.8768 710.439 32.4433 712.57 27.4036C714.701 22.3638 717.66 17.9147 721.448 14.0562C725.236 10.1976 729.656 7.20525 734.706 5.07911C739.836 2.87423 745.36 1.77178 751.279 1.77178C759.013 1.77178 765.839 3.42545 771.758 6.73278C777.677 10.0401 782.056 14.4892 784.897 20.0802L770.456 30.9472C768.562 27.2461 765.8 24.3325 762.169 22.2064C758.618 20.0802 754.751 19.0171 750.569 19.0171C747.412 19.0171 744.492 19.6865 741.809 21.0252C739.205 22.2851 736.916 24.0963 734.943 26.4586C733.049 28.7423 731.589 31.4196 730.563 34.4907C729.537 37.5618 729.024 40.8691 729.024 44.4127C729.024 48.035 729.577 51.3817 730.682 54.4528C731.786 57.5239 733.325 60.2013 735.298 62.4849C737.271 64.6898 739.599 66.4222 742.282 67.6821C745.045 68.9421 748.083 69.572 751.397 69.572C755.422 69.572 759.25 68.5877 762.88 66.6191C766.589 64.5717 769.982 61.5793 773.06 57.642V76.7773C766.352 83.4707 758.579 86.8174 749.74 86.8174ZM771.876 56.4608H755.54V42.4047H787.975V86.2268H771.876V56.4608Z" fill="#22264D"/>
<path d="M800.81 86.2268V2.36238H836.677C840.702 2.36238 844.372 3.18921 847.686 4.84288C851.08 6.41779 854 8.58331 856.446 11.3394C858.893 14.0168 860.787 17.0485 862.128 20.4346C863.47 23.8206 864.141 27.2855 864.141 30.829C864.141 35.6325 862.996 40.1998 860.708 44.5308C858.498 48.8619 855.381 52.4054 851.356 55.1615C847.41 57.8389 842.715 59.1776 837.269 59.1776H820.223V86.2268H800.81ZM820.223 42.2866H836.086C837.585 42.2866 838.966 41.8535 840.229 40.9873C841.491 40.1211 842.517 38.8217 843.307 37.0893C844.096 35.3569 844.49 33.2308 844.49 30.7109C844.49 28.1123 844.017 25.9862 843.07 24.3325C842.202 22.6001 841.057 21.3401 839.637 20.5527C838.295 19.7652 836.875 19.3715 835.375 19.3715H820.223V42.2866Z" fill="#22264D"/>
<path d="M924.991 26.9311C924.754 26.5374 923.926 25.9468 922.505 25.1593C921.085 24.2931 919.309 23.3875 917.178 22.4426C915.048 21.4976 912.719 20.6708 910.194 19.9621C907.669 19.2534 905.143 18.899 902.618 18.899C899.304 18.899 896.739 19.4896 894.924 20.6708C893.109 21.7733 892.201 23.5057 892.201 25.868C892.201 27.7579 892.872 29.2541 894.213 30.3566C895.634 31.459 897.646 32.4433 900.251 33.3095C902.855 34.097 906.051 35.0419 909.839 36.1444C915.205 37.5618 919.861 39.2942 923.807 41.3416C927.753 43.3103 930.752 45.8695 932.804 49.0193C934.935 52.1692 936 56.3427 936 61.5399C936 66.2647 935.132 70.2807 933.396 73.5881C931.659 76.8167 929.292 79.4547 926.293 81.502C923.373 83.4707 920.019 84.9275 916.231 85.8724C912.443 86.7386 908.537 87.1718 904.512 87.1718C900.408 87.1718 896.186 86.778 891.846 85.9906C887.584 85.1244 883.481 83.9432 879.535 82.447C875.589 80.8721 871.959 78.9822 868.644 76.7773L877.167 59.8863C877.483 60.28 878.509 61.0281 880.245 62.1305C881.981 63.1542 884.112 64.2567 886.637 65.4379C889.242 66.5403 892.122 67.5246 895.279 68.3908C898.435 69.257 901.632 69.6901 904.867 69.6901C908.34 69.6901 910.904 69.1389 912.562 68.0365C914.298 66.934 915.166 65.3985 915.166 63.4299C915.166 61.3037 914.258 59.6501 912.443 58.4689C910.707 57.2877 908.3 56.2246 905.222 55.2796C902.224 54.3347 898.751 53.2716 894.805 52.0904C889.676 50.5155 885.414 48.7437 882.021 46.7751C878.706 44.8064 876.22 42.4047 874.563 39.5698C872.985 36.735 872.196 33.1914 872.196 28.9391C872.196 23.0332 873.577 18.0722 876.339 14.0562C879.18 9.96136 882.968 6.89027 887.703 4.84288C892.438 2.71673 897.607 1.65366 903.21 1.65366C907.156 1.65366 910.944 2.12614 914.574 3.07109C918.283 4.01604 921.716 5.19723 924.873 6.61466C928.108 8.03209 930.989 9.44951 933.514 10.8669L924.991 26.9311Z" fill="#22264D"/>
<path d="M165.251 147.209V119.254H177.246C178.483 119.254 179.614 119.517 180.64 120.042C181.666 120.54 182.56 121.223 183.323 122.089C184.086 122.929 184.678 123.887 185.098 124.963C185.519 126.013 185.73 127.089 185.73 128.192C185.73 129.478 185.48 130.699 184.98 131.854C184.507 133.009 183.823 133.993 182.928 134.807C182.06 135.62 181.034 136.185 179.85 136.5L186.637 147.209H182.613L176.22 137.169H168.802V147.209H165.251ZM168.802 134.019H177.286C178.259 134.019 179.101 133.757 179.811 133.232C180.548 132.68 181.113 131.959 181.508 131.066C181.929 130.174 182.139 129.216 182.139 128.192C182.139 127.142 181.902 126.184 181.429 125.318C180.955 124.425 180.337 123.717 179.574 123.192C178.811 122.667 177.97 122.404 177.049 122.404H168.802V134.019Z" fill="#22264D"/>
<path d="M188.705 141.264C188.705 139.951 189.074 138.823 189.81 137.878C190.573 136.906 191.612 136.158 192.928 135.633C194.243 135.108 195.769 134.846 197.505 134.846C198.425 134.846 199.399 134.925 200.425 135.082C201.451 135.213 202.358 135.423 203.147 135.712V134.216C203.147 132.641 202.674 131.407 201.727 130.515C200.78 129.596 199.438 129.137 197.702 129.137C196.571 129.137 195.479 129.347 194.427 129.767C193.401 130.161 192.309 130.738 191.152 131.499L189.889 129.058C191.231 128.139 192.572 127.457 193.914 127.011C195.256 126.538 196.65 126.302 198.097 126.302C200.727 126.302 202.805 127.037 204.331 128.507C205.857 129.951 206.62 131.972 206.62 134.57V143.272C206.62 143.692 206.698 144.007 206.856 144.217C207.04 144.4 207.33 144.505 207.724 144.532V147.209C207.382 147.262 207.08 147.301 206.817 147.327C206.58 147.353 206.383 147.367 206.225 147.367C205.41 147.367 204.791 147.143 204.37 146.697C203.976 146.251 203.752 145.779 203.7 145.28L203.621 143.98C202.726 145.135 201.556 146.028 200.109 146.658C198.662 147.288 197.228 147.603 195.808 147.603C194.44 147.603 193.217 147.327 192.138 146.776C191.06 146.198 190.218 145.437 189.613 144.492C189.008 143.521 188.705 142.445 188.705 141.264ZM202.121 142.721C202.437 142.353 202.687 141.986 202.871 141.618C203.055 141.224 203.147 140.896 203.147 140.634V138.075C202.332 137.76 201.477 137.523 200.582 137.366C199.688 137.182 198.807 137.09 197.939 137.09C196.176 137.09 194.743 137.445 193.638 138.153C192.559 138.836 192.02 139.781 192.02 140.988C192.02 141.644 192.191 142.287 192.533 142.917C192.901 143.521 193.427 144.02 194.111 144.414C194.822 144.807 195.69 145.004 196.716 145.004C197.794 145.004 198.82 144.794 199.793 144.374C200.767 143.928 201.543 143.377 202.121 142.721Z" fill="#22264D"/>
<path d="M219.235 147.603C217.525 147.603 215.92 147.327 214.421 146.776C212.922 146.198 211.633 145.345 210.554 144.217L211.896 141.776C213.079 142.878 214.263 143.665 215.447 144.138C216.631 144.61 217.841 144.847 219.077 144.847C220.498 144.847 221.655 144.584 222.549 144.059C223.444 143.508 223.891 142.707 223.891 141.657C223.891 140.896 223.654 140.332 223.181 139.964C222.734 139.597 222.089 139.295 221.247 139.059C220.405 138.796 219.406 138.508 218.248 138.193C216.828 137.773 215.631 137.326 214.658 136.854C213.684 136.381 212.948 135.791 212.448 135.082C211.948 134.373 211.698 133.481 211.698 132.405C211.698 131.092 212.04 129.99 212.724 129.097C213.408 128.179 214.342 127.483 215.526 127.011C216.736 126.538 218.104 126.302 219.629 126.302C221.155 126.302 222.536 126.538 223.773 127.011C225.009 127.483 226.074 128.179 226.969 129.097L225.39 131.499C224.575 130.659 223.681 130.042 222.707 129.649C221.734 129.229 220.642 129.019 219.432 129.019C218.722 129.019 218.025 129.111 217.341 129.294C216.657 129.452 216.091 129.754 215.644 130.2C215.197 130.62 214.973 131.224 214.973 132.011C214.973 132.667 215.144 133.192 215.486 133.586C215.855 133.953 216.381 134.268 217.065 134.531C217.775 134.793 218.63 135.082 219.629 135.397C221.181 135.843 222.523 136.29 223.654 136.736C224.812 137.182 225.706 137.76 226.337 138.468C226.969 139.177 227.284 140.161 227.284 141.421C227.284 143.364 226.548 144.886 225.075 145.988C223.602 147.065 221.655 147.603 219.235 147.603Z" fill="#22264D"/>
<path d="M242.092 146.185C241.803 146.317 241.408 146.487 240.909 146.697C240.409 146.907 239.83 147.091 239.172 147.248C238.515 147.406 237.818 147.485 237.081 147.485C236.239 147.485 235.463 147.34 234.753 147.052C234.043 146.737 233.477 146.264 233.056 145.634C232.636 144.978 232.425 144.164 232.425 143.193V129.373H229.624V126.656H232.425V119.805H235.897V126.656H240.514V129.373H235.897V142.13C235.95 142.865 236.2 143.416 236.647 143.784C237.094 144.125 237.62 144.295 238.225 144.295C238.909 144.295 239.541 144.177 240.119 143.941C240.698 143.705 241.08 143.534 241.264 143.429L242.092 146.185Z" fill="#22264D"/>
<path d="M256.201 129.688C254.465 129.714 252.926 130.161 251.585 131.027C250.269 131.867 249.336 133.035 248.783 134.531V147.209H245.311V126.656H248.546V131.421C249.257 130.003 250.19 128.861 251.348 127.995C252.532 127.103 253.768 126.604 255.057 126.499C255.32 126.499 255.544 126.499 255.728 126.499C255.912 126.499 256.07 126.512 256.201 126.538V129.688Z" fill="#22264D"/>
<path d="M268.259 147.603C266.707 147.603 265.287 147.327 263.998 146.776C262.735 146.198 261.63 145.424 260.683 144.453C259.762 143.456 259.039 142.314 258.513 141.028C258.013 139.741 257.763 138.376 257.763 136.933C257.763 134.99 258.21 133.219 259.105 131.617C259.999 130.016 261.236 128.73 262.814 127.759C264.419 126.788 266.247 126.302 268.299 126.302C270.377 126.302 272.179 126.801 273.704 127.798C275.257 128.769 276.453 130.056 277.295 131.657C278.163 133.232 278.597 134.938 278.597 136.775C278.597 137.038 278.584 137.3 278.558 137.563C278.558 137.799 278.545 137.983 278.518 138.114H261.433C261.538 139.453 261.906 140.647 262.538 141.697C263.195 142.721 264.037 143.534 265.063 144.138C266.089 144.715 267.194 145.004 268.378 145.004C269.64 145.004 270.824 144.689 271.929 144.059C273.06 143.429 273.836 142.602 274.257 141.579L277.256 142.406C276.809 143.403 276.138 144.295 275.243 145.083C274.375 145.87 273.336 146.487 272.126 146.933C270.942 147.38 269.653 147.603 268.259 147.603ZM261.315 135.712H275.362C275.257 134.373 274.875 133.192 274.217 132.169C273.56 131.145 272.718 130.344 271.692 129.767C270.666 129.189 269.535 128.901 268.299 128.901C267.089 128.901 265.971 129.189 264.945 129.767C263.919 130.344 263.077 131.145 262.419 132.169C261.788 133.192 261.42 134.373 261.315 135.712Z" fill="#22264D"/>
<path d="M291.454 147.603C289.902 147.603 288.494 147.327 287.232 146.776C285.969 146.198 284.877 145.424 283.957 144.453C283.036 143.456 282.326 142.314 281.826 141.028C281.326 139.741 281.076 138.39 281.076 136.972C281.076 135.528 281.326 134.163 281.826 132.877C282.326 131.591 283.036 130.462 283.957 129.491C284.877 128.494 285.969 127.719 287.232 127.168C288.521 126.591 289.928 126.302 291.454 126.302C293.006 126.302 294.413 126.591 295.676 127.168C296.938 127.719 298.03 128.494 298.951 129.491C299.898 130.462 300.621 131.591 301.121 132.877C301.621 134.163 301.871 135.528 301.871 136.972C301.871 138.39 301.621 139.741 301.121 141.028C300.621 142.314 299.911 143.456 298.99 144.453C298.07 145.424 296.965 146.198 295.676 146.776C294.413 147.327 293.006 147.603 291.454 147.603ZM284.627 137.011C284.627 138.429 284.93 139.715 285.535 140.87C286.166 142.025 286.995 142.944 288.021 143.626C289.047 144.282 290.191 144.61 291.454 144.61C292.716 144.61 293.861 144.269 294.887 143.587C295.939 142.904 296.767 141.986 297.372 140.831C298.004 139.649 298.319 138.35 298.319 136.933C298.319 135.515 298.004 134.229 297.372 133.074C296.767 131.919 295.939 131.001 294.887 130.318C293.861 129.636 292.716 129.294 291.454 129.294C290.191 129.294 289.047 129.649 288.021 130.357C286.995 131.04 286.166 131.959 285.535 133.114C284.93 134.268 284.627 135.568 284.627 137.011Z" fill="#22264D"/>
<path d="M333.065 125.121C332.749 124.753 332.329 124.399 331.802 124.058C331.276 123.717 330.684 123.415 330.027 123.152C329.369 122.863 328.646 122.64 327.857 122.483C327.094 122.299 326.291 122.207 325.45 122.207C323.293 122.207 321.701 122.614 320.675 123.428C319.649 124.241 319.136 125.357 319.136 126.774C319.136 127.772 319.399 128.559 319.925 129.137C320.452 129.714 321.254 130.187 322.332 130.554C323.437 130.922 324.831 131.302 326.515 131.696C328.462 132.116 330.145 132.628 331.566 133.232C332.986 133.835 334.078 134.649 334.841 135.673C335.604 136.67 335.985 138.009 335.985 139.689C335.985 141.028 335.722 142.196 335.196 143.193C334.696 144.164 333.986 144.978 333.065 145.634C332.144 146.264 331.066 146.737 329.829 147.052C328.593 147.34 327.252 147.485 325.805 147.485C324.384 147.485 322.99 147.34 321.622 147.052C320.281 146.737 319.005 146.29 317.795 145.713C316.585 145.135 315.453 144.414 314.401 143.547L316.098 140.555C316.519 141.001 317.058 141.447 317.716 141.894C318.4 142.314 319.163 142.707 320.004 143.075C320.872 143.442 321.806 143.744 322.806 143.98C323.806 144.19 324.831 144.295 325.884 144.295C327.883 144.295 329.435 143.941 330.54 143.232C331.645 142.497 332.197 141.434 332.197 140.043C332.197 138.993 331.881 138.153 331.25 137.523C330.645 136.893 329.737 136.368 328.527 135.948C327.317 135.528 325.844 135.108 324.108 134.688C322.214 134.216 320.623 133.704 319.334 133.153C318.045 132.575 317.071 131.827 316.414 130.909C315.782 129.99 315.467 128.796 315.467 127.326C315.467 125.541 315.901 124.032 316.769 122.798C317.637 121.564 318.834 120.632 320.359 120.002C321.885 119.372 323.608 119.057 325.529 119.057C326.791 119.057 327.962 119.189 329.04 119.451C330.145 119.714 331.171 120.081 332.118 120.554C333.065 121.026 333.933 121.59 334.722 122.247L333.065 125.121Z" fill="#22264D"/>
<path d="M338.486 141.264C338.486 139.951 338.854 138.823 339.591 137.878C340.353 136.906 341.392 136.158 342.708 135.633C344.023 135.108 345.549 134.846 347.285 134.846C348.206 134.846 349.179 134.925 350.205 135.082C351.231 135.213 352.138 135.423 352.927 135.712V134.216C352.927 132.641 352.454 131.407 351.507 130.515C350.56 129.596 349.218 129.137 347.482 129.137C346.351 129.137 345.259 129.347 344.207 129.767C343.181 130.161 342.09 130.738 340.932 131.499L339.669 129.058C341.011 128.139 342.353 127.457 343.694 127.011C345.036 126.538 346.43 126.302 347.877 126.302C350.507 126.302 352.586 127.037 354.111 128.507C355.637 129.951 356.4 131.972 356.4 134.57V143.272C356.4 143.692 356.479 144.007 356.637 144.217C356.821 144.4 357.11 144.505 357.505 144.532V147.209C357.163 147.262 356.86 147.301 356.597 147.327C356.36 147.353 356.163 147.367 356.005 147.367C355.19 147.367 354.572 147.143 354.151 146.697C353.756 146.251 353.533 145.779 353.48 145.28L353.401 143.98C352.507 145.135 351.336 146.028 349.889 146.658C348.442 147.288 347.009 147.603 345.588 147.603C344.22 147.603 342.997 147.327 341.919 146.776C340.84 146.198 339.998 145.437 339.393 144.492C338.788 143.521 338.486 142.445 338.486 141.264ZM351.902 142.721C352.217 142.353 352.467 141.986 352.651 141.618C352.835 141.224 352.927 140.896 352.927 140.634V138.075C352.112 137.76 351.257 137.523 350.363 137.366C349.468 137.182 348.587 137.09 347.719 137.09C345.956 137.09 344.523 137.445 343.418 138.153C342.339 138.836 341.8 139.781 341.8 140.988C341.8 141.644 341.971 142.287 342.313 142.917C342.681 143.521 343.208 144.02 343.892 144.414C344.602 144.807 345.47 145.004 346.496 145.004C347.574 145.004 348.6 144.794 349.574 144.374C350.547 143.928 351.323 143.377 351.902 142.721Z" fill="#22264D"/>
<path d="M372.452 146.185C372.162 146.317 371.768 146.487 371.268 146.697C370.768 146.907 370.189 147.091 369.532 147.248C368.874 147.406 368.177 147.485 367.441 147.485C366.599 147.485 365.823 147.34 365.112 147.052C364.402 146.737 363.837 146.264 363.416 145.634C362.995 144.978 362.784 144.164 362.784 143.193V129.373H359.983V126.656H362.784V119.805H366.257V126.656H370.873V129.373H366.257V142.13C366.309 142.865 366.559 143.416 367.006 143.784C367.454 144.125 367.98 144.295 368.585 144.295C369.269 144.295 369.9 144.177 370.479 143.941C371.058 143.705 371.439 143.534 371.623 143.429L372.452 146.185Z" fill="#22264D"/>
<path d="M384.515 147.603C382.963 147.603 381.543 147.327 380.254 146.776C378.991 146.198 377.886 145.424 376.939 144.453C376.018 143.456 375.295 142.314 374.769 141.028C374.269 139.741 374.019 138.376 374.019 136.933C374.019 134.99 374.466 133.219 375.361 131.617C376.255 130.016 377.492 128.73 379.07 127.759C380.675 126.788 382.503 126.302 384.555 126.302C386.633 126.302 388.435 126.801 389.96 127.798C391.513 128.769 392.709 130.056 393.551 131.657C394.419 133.232 394.853 134.938 394.853 136.775C394.853 137.038 394.84 137.3 394.814 137.563C394.814 137.799 394.801 137.983 394.774 138.114H377.689C377.794 139.453 378.162 140.647 378.794 141.697C379.451 142.721 380.293 143.534 381.319 144.138C382.345 144.715 383.45 145.004 384.634 145.004C385.896 145.004 387.08 144.689 388.185 144.059C389.316 143.429 390.092 142.602 390.513 141.579L393.512 142.406C393.065 143.403 392.394 144.295 391.499 145.083C390.631 145.87 389.592 146.487 388.382 146.933C387.198 147.38 385.909 147.603 384.515 147.603ZM377.571 135.712H391.618C391.512 134.373 391.131 133.192 390.473 132.169C389.816 131.145 388.974 130.344 387.948 129.767C386.922 129.189 385.791 128.901 384.555 128.901C383.345 128.901 382.227 129.189 381.201 129.767C380.175 130.344 379.333 131.145 378.675 132.169C378.044 133.192 377.676 134.373 377.571 135.712Z" fill="#22264D"/>
<path d="M398.792 118.467H402.264V141.894C402.264 143.022 402.422 143.718 402.738 143.98C403.054 144.243 403.435 144.374 403.882 144.374C404.435 144.374 404.961 144.322 405.461 144.217C405.96 144.085 406.381 143.954 406.723 143.823L407.276 146.658C406.697 146.894 406.013 147.091 405.224 147.248C404.435 147.406 403.738 147.485 403.133 147.485C401.791 147.485 400.726 147.104 399.936 146.343C399.174 145.582 398.792 144.519 398.792 143.154V118.467Z" fill="#22264D"/>
<path d="M410.004 147.209V126.656H413.476V147.209H410.004ZM410.004 122.798V118.467H413.476V122.798H410.004Z" fill="#22264D"/>
<path d="M429.751 146.185C429.462 146.317 429.067 146.487 428.567 146.697C428.068 146.907 427.489 147.091 426.831 147.248C426.174 147.406 425.477 147.485 424.74 147.485C423.898 147.485 423.122 147.34 422.412 147.052C421.702 146.737 421.136 146.264 420.715 145.634C420.294 144.978 420.084 144.164 420.084 143.193V129.373H417.282V126.656H420.084V119.805H423.556V126.656H428.173V129.373H423.556V142.13C423.609 142.865 423.859 143.416 424.306 143.784C424.753 144.125 425.279 144.295 425.884 144.295C426.568 144.295 427.2 144.177 427.778 143.941C428.357 143.705 428.738 143.534 428.923 143.429L429.751 146.185Z" fill="#22264D"/>
<path d="M431.352 141.264C431.352 139.951 431.72 138.823 432.457 137.878C433.219 136.906 434.259 136.158 435.574 135.633C436.889 135.108 438.415 134.846 440.151 134.846C441.072 134.846 442.045 134.925 443.071 135.082C444.097 135.213 445.004 135.423 445.794 135.712V134.216C445.794 132.641 445.32 131.407 444.373 130.515C443.426 129.596 442.084 129.137 440.348 129.137C439.217 129.137 438.125 129.347 437.073 129.767C436.047 130.161 434.956 130.738 433.798 131.499L432.536 129.058C433.877 128.139 435.219 127.457 436.56 127.011C437.902 126.538 439.296 126.302 440.743 126.302C443.373 126.302 445.452 127.037 446.977 128.507C448.503 129.951 449.266 131.972 449.266 134.57V143.272C449.266 143.692 449.345 144.007 449.503 144.217C449.687 144.4 449.976 144.505 450.371 144.532V147.209C450.029 147.262 449.726 147.301 449.463 147.327C449.226 147.353 449.029 147.367 448.871 147.367C448.056 147.367 447.438 147.143 447.017 146.697C446.622 146.251 446.399 145.779 446.346 145.28L446.267 143.98C445.373 145.135 444.202 146.028 442.755 146.658C441.308 147.288 439.875 147.603 438.454 147.603C437.086 147.603 435.863 147.327 434.785 146.776C433.706 146.198 432.864 145.437 432.259 144.492C431.654 143.521 431.352 142.445 431.352 141.264ZM444.768 142.721C445.083 142.353 445.333 141.986 445.517 141.618C445.701 141.224 445.794 140.896 445.794 140.634V138.075C444.978 137.76 444.123 137.523 443.229 137.366C442.334 137.182 441.453 137.09 440.585 137.09C438.823 137.09 437.389 137.445 436.284 138.153C435.206 138.836 434.666 139.781 434.666 140.988C434.666 141.644 434.837 142.287 435.179 142.917C435.548 143.521 436.074 144.02 436.758 144.414C437.468 144.807 438.336 145.004 439.362 145.004C440.44 145.004 441.466 144.794 442.44 144.374C443.413 143.928 444.189 143.377 444.768 142.721Z" fill="#22264D"/>
<path d="M454.897 118.467H458.369V141.894C458.369 143.022 458.527 143.718 458.843 143.98C459.159 144.243 459.54 144.374 459.987 144.374C460.54 144.374 461.066 144.322 461.566 144.217C462.065 144.085 462.486 143.954 462.828 143.823L463.381 146.658C462.802 146.894 462.118 147.091 461.329 147.248C460.54 147.406 459.843 147.485 459.237 147.485C457.896 147.485 456.831 147.104 456.041 146.343C455.278 145.582 454.897 144.519 454.897 143.154V118.467Z" fill="#22264D"/>
<g clip-path="url(#clip0_274_35)">
<path d="M103.769 27.57C88.4181 26.7175 75.1096 20.8224 67.2547 11.3963L57.758 0L48.261 11.3963C40.4063 20.8226 27.0978 26.7175 11.7463 27.57L0.0698242 28.2184V82.1478C0.0698242 116.458 46.7146 141.829 52.032 144.609L57.758 147.603L63.4839 144.609C68.8011 141.829 115.446 116.458 115.446 82.1478V28.2184L103.769 27.57ZM57.758 19.3091C68.057 31.6714 84.5409 38.8832 103.084 39.9124C103.084 39.9124 103.084 71.8462 103.084 82.1478C103.084 109.96 57.758 133.654 57.758 133.654C57.758 133.654 12.4321 109.96 12.4321 82.1478C12.4321 71.8462 12.4321 39.9124 12.4321 39.9124C30.9744 38.8832 47.4587 31.6717 57.758 19.3091Z" fill="#A60000"/>
</g>
<defs>
<clipPath id="clip0_274_35">
<rect width="115.515" height="147.603" fill="white"/>
</clipPath>
</defs>
</svg>
